<svg xmlns="http://www.w3.org/2000/svg" viewBox="11 11 76 76"
  style="shape-rendering:geometricPrecision; text-rendering:geometricPrecision; image-rendering:optimizeQuality; fill-rule:evenodd; clip-rule:evenodd">
  <g>
    <path style="opacity:0.769" fill="currentColor"
      d="M 61.5,12.5 C 68.9094,11.6209 75.9094,12.7875 82.5,16C 83.7014,16.9025 84.5348,18.0692 85,19.5C 85.9759,39.9227 85.6425,60.2561 84,80.5C 80.5884,84.7601 76.0884,86.5935 70.5,86C 53.1166,86.5432 35.7832,85.8765 18.5,84C 16.2739,82.7727 14.7739,80.9393 14,78.5C 13.0363,58.4352 13.3696,38.4352 15,18.5C 16.6374,16.1898 18.804,14.6898 21.5,14C 35.0063,13.831 48.3396,13.331 61.5,12.5 Z M 22.5,43.5 C 24.3442,42.7961 24.8442,41.4628 24,39.5C 22.0448,38.5467 20.3782,37.2134 19,35.5C 18.3333,31.1667 18.3333,26.8333 19,22.5C 19.3742,21.5838 19.8742,20.7504 20.5,20C 26.7226,18.4185 33.0559,18.0852 39.5,19C 40.713,21.6865 41.3797,24.5198 41.5,27.5C 42.5,27.5 43.5,27.5 44.5,27.5C 44.5,25.8333 44.5,24.1667 44.5,22.5C 48.3707,23.618 49.3707,22.2847 47.5,18.5C 50.8333,18.5 54.1667,18.5 57.5,18.5C 57.67,19.8221 57.3366,20.9887 56.5,22C 57.0253,22.6924 57.6919,23.1924 58.5,23.5C 59.9882,21.8507 60.9882,19.8507 61.5,17.5C 61.3595,19.2555 61.8595,20.9222 63,22.5C 64.883,21.3474 65.7163,19.6807 65.5,17.5C 69.6049,17.2338 73.6049,17.7338 77.5,19C 80.3855,20.9326 81.0521,23.4326 79.5,26.5C 75.6733,28.246 72.0066,30.246 68.5,32.5C 68.8333,33.5 69.5,34.1667 70.5,34.5C 73.9242,32.4198 77.2575,31.0864 80.5,30.5C 77.8037,31.8939 75.4703,33.7272 73.5,36C 73.8333,36.5 74.1667,37 74.5,37.5C 76.1667,36.8333 77.8333,36.1667 79.5,35.5C 80.6661,49.1545 80.8327,62.8212 80,76.5C 78.9805,75.3128 77.8139,74.3128 76.5,73.5C 75.2199,75.7244 75.5532,77.7244 77.5,79.5C 76.8333,79.8333 76.1667,80.1667 75.5,80.5C 73.8742,78.5476 71.8742,77.2143 69.5,76.5C 70.9107,82.2624 69.9107,82.7624 66.5,78C 65.552,77.5172 64.552,77.3505 63.5,77.5C 63.33,78.8221 63.6634,79.9887 64.5,81C 57.8417,81.4996 51.175,81.6663 44.5,81.5C 44.1646,74.2827 42.9979,73.9494 41,80.5C 40.5172,79.552 40.3505,78.552 40.5,77.5C 38.0876,77.244 36.4209,78.244 35.5,80.5C 34.8719,75.4906 33.3719,75.4906 31,80.5C 30.7509,73.9616 29.0842,73.9616 26,80.5C 25.5172,79.552 25.3505,78.552 25.5,77.5C 23.6096,77.2965 22.1096,77.9632 21,79.5C 20.3333,78.8333 19.6667,78.1667 19,77.5C 18.1687,70.144 18.3354,62.8107 19.5,55.5C 24.9595,52.652 24.7929,51.652 19,52.5C 18.3333,50.1667 18.3333,47.8333 19,45.5C 20.1096,47.0368 21.6096,47.7035 23.5,47.5C 23.5674,46.0413 23.2341,44.7079 22.5,43.5 Z M 22.5,43.5 C 19.9986,43.1744 18.8319,41.8411 19,39.5C 20.3756,40.7051 21.5423,42.0384 22.5,43.5 Z" />
  </g>
  <g>
    <path style="opacity:0.386" fill="currentColor"
      d="M 29.5,20.5 C 31.4646,20.9483 31.7979,21.9483 30.5,23.5C 29.6143,22.675 29.281,21.675 29.5,20.5 Z" />
  </g>
  <g>
    <path style="opacity:0.463" fill="currentColor"
      d="M 22.5,28.5 C 24.9732,28.9473 25.1399,29.9473 23,31.5C 22.5172,30.552 22.3505,29.552 22.5,28.5 Z" />
  </g>
  <g>
    <path style="opacity:0.579" fill="currentColor"
      d="M 32.5,28.5 C 34.337,28.6395 34.6704,29.3061 33.5,30.5C 32.7025,30.0431 32.3691,29.3764 32.5,28.5 Z" />
  </g>
  <g>
    <path style="opacity:0.799" fill="currentColor"
      d="M 33.5,35.5 C 42.3311,36.7496 51.1644,36.7496 60,35.5C 62.1667,35.6667 64.3333,35.8333 66.5,36C 67.7111,37.1131 67.7111,38.2798 66.5,39.5C 60.5123,40.2991 54.5123,40.9657 48.5,41.5C 43.1998,40.6564 37.8665,40.3231 32.5,40.5C 32.366,38.7085 32.6993,37.0418 33.5,35.5 Z" />
  </g>
  <g>
    <path style="opacity:0.78" fill="currentColor"
      d="M 61.5,47.5 C 65.4933,46.9995 67.16,48.4995 66.5,52C 55.5442,53.5168 44.5442,53.8502 33.5,53C 32.6198,51.6439 32.2865,50.1439 32.5,48.5C 42.3478,48.8271 52.0144,48.4938 61.5,47.5 Z" />
  </g>
  <g>
    <path style="opacity:0.781" fill="currentColor"
      d="M 32.5,60.5 C 44.5,60.5 56.5,60.5 68.5,60.5C 68.7135,62.1439 68.3802,63.6439 67.5,65C 55.8333,65.6667 44.1667,65.6667 32.5,65C 31.2721,63.5098 31.2721,62.0098 32.5,60.5 Z" />
  </g>
</svg>